C:\Users\israe\Dropbox\PhDWork\Simulation\code\PassiveMoments\Data\TrialAnk_r_kne0hip0_kneBen15hip0_kneBen60hip0_rajagopalModel.mot
nRows=82
nColumns=4

name C:\Users\israe\Dropbox\PhDWork\Simulation\code\PassiveMoments\Data\TrialAnk_r_kne0hip0_kneBen15hip0_kneBen60hip0_rajagopalModel.mot
datacolumns 4
datarows 82
range 0.0000000000 1.6263265306
endheader
time	hip_flexion_r	knee_angle_r	ankle_angle_r
        0.0000000000	        0.0000000000	        0.0000000000	      -30.0000000000	
        0.0202040816	        0.0000000000	        0.0000000000	      -29.0204081633	
        0.0404081633	        0.0000000000	        0.0000000000	      -28.0408163265	
        0.0606122449	        0.0000000000	        0.0000000000	      -27.0612244898	
        0.0808163265	        0.0000000000	        0.0000000000	      -26.0816326531	
        0.1010204082	        0.0000000000	        0.0000000000	      -25.1020408163	
        0.1212244898	        0.0000000000	        0.0000000000	      -24.1224489796	
        0.1414285714	        0.0000000000	        0.0000000000	      -23.1428571429	
        0.1616326531	        0.0000000000	        0.0000000000	      -22.1632653061	
        0.1818367347	        0.0000000000	        0.0000000000	      -21.1836734694	
        0.2020408163	        0.0000000000	        0.0000000000	      -20.2040816327	
        0.2222448980	        0.0000000000	        0.0000000000	      -19.2244897959	
        0.2424489796	        0.0000000000	        0.0000000000	      -18.2448979592	
        0.2626530612	        0.0000000000	        0.0000000000	      -17.2653061224	
        0.2828571429	        0.0000000000	        0.0000000000	      -16.2857142857	
        0.3030612245	        0.0000000000	        0.0000000000	      -15.3061224490	
        0.3232653061	        0.0000000000	        0.0000000000	      -14.3265306122	
        0.3434693878	        0.0000000000	        0.0000000000	      -13.3469387755	
        0.3636734694	        0.0000000000	        0.0000000000	      -12.3673469388	
        0.3838775510	        0.0000000000	        0.0000000000	      -11.3877551020	
        0.4040816327	        0.0000000000	        0.0000000000	      -10.4081632653	
        0.4242857143	        0.0000000000	        0.0000000000	       -9.4285714286	
        0.4444897959	        0.0000000000	        0.0000000000	       -8.4489795918	
        0.4646938776	        0.0000000000	        0.0000000000	       -7.4693877551	
        0.4848979592	        0.0000000000	        0.0000000000	       -6.4897959184	
        0.5051020408	        0.0000000000	        0.0000000000	       -5.5102040816	
        0.5253061224	        0.0000000000	        0.0000000000	       -4.5306122449	
        0.5455102041	        0.0000000000	        0.0000000000	       -3.5510204082	
        0.5657142857	        0.0000000000	        0.0000000000	       -2.5714285714	
        0.5859183673	        0.0000000000	        0.0000000000	       -1.5918367347	
        0.6061224490	        0.0000000000	        0.0000000000	       -0.6122448980	
        0.6263265306	        0.0000000000	        0.0000000000	        0.3673469388	
        0.6465306122	        0.0000000000	        0.0000000000	        1.3469387755	
        0.6667346939	        0.0000000000	        0.0000000000	        2.3265306122	
        0.6869387755	        0.0000000000	        0.0000000000	        3.3061224490	
        0.7071428571	        0.0000000000	        0.0000000000	        4.2857142857	
        0.7273469388	        0.0000000000	        0.0000000000	        5.2653061224	
        0.7475510204	        0.0000000000	        0.0000000000	        6.2448979592	
        0.7677551020	        0.0000000000	        0.0000000000	        7.2244897959	
        0.7879591837	        0.0000000000	        0.0000000000	        8.2040816327	
        0.8081632653	        0.0000000000	        0.0000000000	        9.1836734694	
        0.8283673469	        0.0000000000	        0.0000000000	       10.1632653061	
        0.8485714286	        0.0000000000	        0.0000000000	       11.1428571429	
        0.8687755102	        0.0000000000	        0.0000000000	       12.1224489796	
        0.8889795918	        0.0000000000	        0.0000000000	       13.1020408163	
        0.9091836735	        0.0000000000	        0.0000000000	       14.0816326531	
        0.9293877551	        0.0000000000	        0.0000000000	       15.0612244898	
        0.9495918367	        0.0000000000	        0.0000000000	       16.0408163265	
        0.9697959184	        0.0000000000	        0.0000000000	       17.0204081633	
        0.9900000000	        0.0000000000	        0.0000000000	       18.0000000000	
        1.0000000000	        0.0000000000	       15.0000000000	      -29.0000000000	
        1.0202040816	        0.0000000000	       15.0000000000	      -28.0204081633	
        1.0404081633	        0.0000000000	       15.0000000000	      -27.0408163265	
        1.0606122449	        0.0000000000	       15.0000000000	      -26.0612244898	
        1.0808163265	        0.0000000000	       15.0000000000	      -25.0816326531	
        1.1010204082	        0.0000000000	       15.0000000000	      -24.1020408163	
        1.1212244898	        0.0000000000	       15.0000000000	      -23.1224489796	
        1.1414285714	        0.0000000000	       15.0000000000	      -22.1428571429	
        1.1616326531	        0.0000000000	       15.0000000000	      -21.1632653061	
        1.1818367347	        0.0000000000	       15.0000000000	      -20.1836734694	
        1.2020408163	        0.0000000000	       15.0000000000	      -19.2040816327	
        1.2222448980	        0.0000000000	       15.0000000000	      -18.2244897959	
        1.2424489796	        0.0000000000	       15.0000000000	      -17.2448979592	
        1.2626530612	        0.0000000000	       15.0000000000	      -16.2653061224	
        1.2828571429	        0.0000000000	       15.0000000000	      -15.2857142857	
        1.3030612245	        0.0000000000	       15.0000000000	      -14.3061224490	
        1.3232653061	        0.0000000000	       15.0000000000	      -13.3265306122	
        1.3434693878	        0.0000000000	       15.0000000000	      -12.3469387755	
        1.3636734694	        0.0000000000	       15.0000000000	      -11.3673469388	
        1.3838775510	        0.0000000000	       15.0000000000	      -10.3877551020	
        1.4040816327	        0.0000000000	       15.0000000000	       -9.4081632653	
        1.4242857143	        0.0000000000	       15.0000000000	       -8.4285714286	
        1.4444897959	        0.0000000000	       15.0000000000	       -7.4489795918	
        1.4646938776	        0.0000000000	       15.0000000000	       -6.4693877551	
        1.4848979592	        0.0000000000	       15.0000000000	       -5.4897959184	
        1.5051020408	        0.0000000000	       15.0000000000	       -4.5102040816	
        1.5253061224	        0.0000000000	       15.0000000000	       -3.5306122449	
        1.5455102041	        0.0000000000	       15.0000000000	       -2.5510204082	
        1.5657142857	        0.0000000000	       15.0000000000	       -1.5714285714	
        1.5859183673	        0.0000000000	       15.0000000000	       -0.5918367347	
        1.6061224490	        0.0000000000	       15.0000000000	        0.3877551020	
        1.6263265306	        0.0000000000	       15.0000000000	        1.3673469388	
